<svg xmlns="http://www.w3.org/2000/svg" xmlns:xlink="http://www.w3.org/1999/xlink" width="400" zoomAndPan="magnify" viewBox="0 0 300 74.999997" height="100" preserveAspectRatio="xMidYMid meet" version="1.2"><defs/><g id="25bd607582"><path style=" stroke:none;fill-rule:nonzero;fill:#332c54;fill-opacity:1;" d="M 8.21875 57.183594 C 6.132812 55.105469 4.421875 52.75 3.085938 50.125 C 1.746094 47.5 0.847656 44.734375 0.390625 41.820312 C -0.0351562 39.113281 -0.0703125 36.402344 0.296875 33.683594 C 0.988281 31.039062 2.304688 28.746094 4.242188 26.816406 L 14.960938 16.097656 C 15.535156 15.523438 16.148438 15 16.808594 14.527344 C 17.464844 14.054688 18.15625 13.632812 18.878906 13.269531 C 19.605469 12.90625 20.351562 12.601562 21.125 12.359375 C 21.898438 12.113281 22.683594 11.933594 23.488281 11.8125 C 24.289062 11.695312 25.09375 11.640625 25.90625 11.652344 C 26.714844 11.660156 27.519531 11.734375 28.316406 11.875 C 29.117188 12.011719 29.898438 12.214844 30.664062 12.476562 C 31.433594 12.738281 32.171875 13.0625 32.886719 13.445312 C 34.761719 14.285156 39.035156 17.105469 42.613281 20.652344 C 40.351562 18.558594 29.859375 16.996094 25.578125 20.753906 L 23.667969 22.660156 C 15.453125 30.878906 15.453125 44.269531 23.667969 52.492188 C 23.667969 52.492188 36.664062 67.804688 49.304688 69.378906 C 51.429688 69.644531 53.589844 69.054688 55.648438 68.40625 C 55.023438 68.933594 54.382812 69.429688 53.714844 69.898438 C 53.050781 70.367188 52.367188 70.804688 51.660156 71.214844 C 50.957031 71.625 50.238281 72 49.5 72.347656 C 48.765625 72.695312 48.015625 73.007812 47.25 73.289062 C 46.484375 73.566406 45.710938 73.816406 44.925781 74.027344 C 44.140625 74.242188 43.347656 74.417969 42.546875 74.5625 C 41.746094 74.707031 40.9375 74.816406 40.128906 74.886719 C 39.316406 74.960938 38.503906 75 37.691406 75 C 36.878906 75.003906 36.066406 74.96875 35.253906 74.902344 C 34.441406 74.832031 33.636719 74.730469 32.832031 74.589844 C 32.03125 74.453125 31.238281 74.277344 30.449219 74.070312 C 29.664062 73.859375 28.886719 73.617188 28.121094 73.34375 C 27.355469 73.066406 26.605469 72.757812 25.867188 72.414062 C 25.125 72.074219 24.40625 71.699219 23.699219 71.292969 C 22.992188 70.890625 22.304688 70.453125 21.636719 69.988281 C 20.96875 69.523438 20.324219 69.03125 19.699219 68.507812 C 19.058594 67.976562 18.441406 67.410156 17.84375 66.8125 Z M 25.695312 5.621094 C 38.335938 7.191406 51.332031 22.507812 51.332031 22.507812 C 59.546875 30.726562 59.546875 44.113281 51.332031 52.339844 L 49.421875 54.246094 C 44.738281 58.226562 34.648438 56.445312 32.390625 54.351562 C 35.964844 57.898438 40.230469 60.71875 42.113281 61.558594 C 42.828125 61.941406 43.570312 62.265625 44.335938 62.527344 C 45.101562 62.789062 45.882812 62.992188 46.683594 63.128906 C 47.480469 63.269531 48.285156 63.34375 49.097656 63.351562 C 49.90625 63.363281 50.714844 63.308594 51.515625 63.1875 C 52.316406 63.070312 53.101562 62.886719 53.875 62.644531 C 54.648438 62.398438 55.398438 62.09375 56.121094 61.730469 C 56.84375 61.367188 57.535156 60.949219 58.191406 60.472656 C 58.851562 60 59.464844 59.476562 60.039062 58.902344 L 70.761719 48.183594 C 72.695312 46.253906 74.011719 43.964844 74.703125 41.320312 C 75.070312 38.601562 75.039062 35.890625 74.609375 33.183594 C 74.152344 30.273438 73.253906 27.503906 71.914062 24.878906 C 70.578125 22.253906 68.867188 19.898438 66.78125 17.820312 L 57.152344 8.1875 C 56.558594 7.59375 55.941406 7.023438 55.300781 6.488281 C 54.675781 5.964844 54.027344 5.472656 53.359375 5.007812 C 52.691406 4.542969 52.003906 4.109375 51.296875 3.703125 C 50.59375 3.296875 49.871094 2.925781 49.132812 2.582031 C 48.394531 2.242188 47.640625 1.929688 46.875 1.65625 C 46.109375 1.378906 45.332031 1.136719 44.546875 0.929688 C 43.757812 0.71875 42.964844 0.546875 42.164062 0.40625 C 41.359375 0.269531 40.554688 0.164062 39.742188 0.09375 C 38.933594 0.0273438 38.121094 -0.0078125 37.304688 -0.00390625 C 36.492188 0 35.679688 0.0351562 34.871094 0.109375 C 34.058594 0.183594 33.253906 0.289062 32.453125 0.433594 C 31.652344 0.578125 30.855469 0.757812 30.070312 0.96875 C 29.285156 1.183594 28.511719 1.429688 27.746094 1.710938 C 26.984375 1.992188 26.234375 2.304688 25.496094 2.648438 C 24.757812 2.996094 24.039062 3.375 23.335938 3.78125 C 22.632812 4.191406 21.945312 4.628906 21.28125 5.097656 C 20.617188 5.566406 19.972656 6.066406 19.351562 6.589844 C 21.410156 5.945312 23.570312 5.359375 25.695312 5.621094 Z M 25.695312 5.621094 "/><g style="fill:#332c54;fill-opacity:1;"><g transform="translate(86.192605, 66.725384)"><path style="stroke:none" d="M 9.921875 -9.089844 L 4.769531 -9.089844 L 4.769531 -8.042969 L 9.921875 -8.042969 Z M 2.878906 -9.507812 C 2.273438 -7.910156 1.238281 -6.3125 0.167969 -5.296875 C 0.394531 -4.984375 0.742188 -4.253906 0.867188 -3.9375 C 1.179688 -4.253906 1.496094 -4.601562 1.800781 -4.996094 L 1.800781 0.945312 L 3.070312 0.945312 L 3.070312 -6.929688 C 3.476562 -7.640625 3.824219 -8.382812 4.117188 -9.101562 Z M 8.933594 -1.632812 L 8.933594 -0.527344 L 5.691406 -0.527344 L 5.691406 -1.632812 Z M 4.410156 0.96875 L 5.691406 0.96875 L 5.691406 0.515625 L 8.933594 0.515625 L 8.933594 0.933594 L 10.28125 0.933594 L 10.28125 -2.667969 L 4.410156 -2.667969 Z M 4.589844 -3.21875 L 10.078125 -3.21875 L 10.078125 -4.265625 L 4.589844 -4.265625 Z M 10.125 -5.859375 L 4.589844 -5.859375 L 4.589844 -4.828125 L 10.125 -4.828125 Z M 3.703125 -7.492188 L 3.703125 -6.414062 L 10.902344 -6.414062 L 10.902344 -7.492188 Z M 3.703125 -7.492188 "/></g></g><g style="fill:#332c54;fill-opacity:1;"><g transform="translate(100.650017, 66.725384)"><path style="stroke:none" d="M 1.675781 -5.46875 L 2.40625 -5.46875 L 2.40625 -4.398438 L 1.675781 -4.398438 Z M 4.164062 -4.398438 L 3.421875 -4.398438 L 3.421875 -5.46875 L 4.164062 -5.46875 Z M 5.296875 -1.914062 C 5.085938 -2.136719 4.308594 -2.914062 3.800781 -3.386719 L 5.199219 -3.386719 L 5.199219 -6.46875 L 3.511719 -6.46875 L 3.511719 -7.1875 L 5.242188 -7.1875 L 5.242188 -8.371094 L 3.511719 -8.371094 L 3.511719 -9.515625 L 2.316406 -9.515625 L 2.316406 -8.371094 L 0.527344 -8.371094 L 0.527344 -7.1875 L 2.316406 -7.1875 L 2.316406 -6.46875 L 0.6875 -6.46875 L 0.6875 -3.386719 L 2.015625 -3.386719 C 1.550781 -2.542969 0.867188 -1.640625 0.234375 -1.089844 C 0.425781 -0.765625 0.6875 -0.226562 0.796875 0.136719 C 1.339844 -0.359375 1.867188 -1.113281 2.316406 -1.914062 L 2.316406 0.96875 L 3.511719 0.96875 L 3.511719 -2.285156 C 3.902344 -1.800781 4.308594 -1.25 4.523438 -0.890625 Z M 6.695312 -1.226562 C 6.222656 -0.742188 5.265625 -0.144531 4.433594 0.15625 C 4.714844 0.382812 5.085938 0.753906 5.296875 1 C 6.152344 0.664062 7.167969 0.046875 7.761719 -0.539062 Z M 9.203125 -5.46875 L 6.976562 -5.46875 L 6.976562 -6.164062 L 9.203125 -6.164062 Z M 9.203125 -3.847656 L 6.976562 -3.847656 L 6.976562 -4.546875 L 9.203125 -4.546875 Z M 9.203125 -2.214844 L 6.976562 -2.214844 L 6.976562 -2.914062 L 9.203125 -2.914062 Z M 10.460938 -7.15625 L 8.484375 -7.15625 C 8.574219 -7.402344 8.664062 -7.671875 8.742188 -7.941406 L 10.8125 -7.941406 L 10.8125 -9.089844 L 5.355469 -9.089844 L 5.355469 -7.941406 L 7.335938 -7.941406 C 7.300781 -7.683594 7.257812 -7.414062 7.210938 -7.15625 L 5.769531 -7.15625 L 5.769531 -1.226562 L 10.460938 -1.226562 Z M 8.28125 -0.527344 C 8.875 -0.078125 9.664062 0.585938 10.035156 1 L 11.082031 0.328125 C 10.664062 -0.101562 9.855469 -0.71875 9.257812 -1.136719 Z M 8.28125 -0.527344 "/></g></g><g style="fill:#332c54;fill-opacity:1;"><g transform="translate(115.107428, 66.725384)"><path style="stroke:none" d="M 0.796875 -2.949219 C 0.707031 -2.003906 0.527344 -1 0.203125 -0.335938 C 0.496094 -0.234375 0.988281 0 1.226562 0.144531 C 1.550781 -0.574219 1.789062 -1.699219 1.902344 -2.757812 Z M 3.238281 -2.746094 C 3.5 -2.082031 3.792969 -1.214844 3.890625 -0.652344 L 4.882812 -1.011719 C 4.757812 -1.574219 4.464844 -2.394531 4.183594 -3.039062 Z M 8.390625 -1.824219 L 10.394531 -1.824219 L 10.394531 -3.003906 L 8.390625 -3.003906 L 8.390625 -4.34375 L 7.078125 -4.34375 L 7.078125 -3.003906 L 5.164062 -3.003906 L 5.164062 -1.824219 L 7.078125 -1.824219 L 7.078125 -0.507812 L 4.5 -0.507812 L 4.5 0.664062 L 10.855469 0.664062 L 10.855469 -0.507812 L 8.390625 -0.507812 Z M 8.742188 -7.863281 C 8.449219 -7.367188 8.078125 -6.917969 7.640625 -6.523438 C 7.199219 -6.917969 6.828125 -7.367188 6.558594 -7.863281 Z M 9.652344 -9.066406 L 9.417969 -9.011719 L 4.757812 -9.011719 L 4.757812 -7.863281 L 6.042969 -7.863281 L 5.320312 -7.628906 C 5.679688 -6.929688 6.121094 -6.324219 6.648438 -5.792969 C 5.972656 -5.390625 5.21875 -5.074219 4.410156 -4.859375 C 4.253906 -5.21875 4.074219 -5.578125 3.890625 -5.894531 L 3.003906 -5.523438 C 3.140625 -5.277344 3.273438 -4.996094 3.398438 -4.714844 L 2.316406 -4.667969 C 3.027344 -5.578125 3.800781 -6.714844 4.421875 -7.695312 L 3.328125 -8.203125 C 3.070312 -7.648438 2.710938 -7.007812 2.328125 -6.378906 C 2.214844 -6.515625 2.09375 -6.671875 1.945312 -6.828125 C 2.351562 -7.457031 2.800781 -8.324219 3.207031 -9.089844 L 2.046875 -9.515625 C 1.855469 -8.921875 1.542969 -8.179688 1.226562 -7.558594 C 1.136719 -7.640625 1.046875 -7.71875 0.96875 -7.785156 L 0.328125 -6.875 C 0.789062 -6.421875 1.328125 -5.828125 1.652344 -5.34375 C 1.472656 -5.085938 1.292969 -4.835938 1.125 -4.625 L 0.316406 -4.589844 L 0.425781 -3.429688 L 2.058594 -3.53125 L 2.058594 0.988281 L 3.21875 0.988281 L 3.21875 -3.609375 L 3.792969 -3.65625 C 3.859375 -3.441406 3.902344 -3.25 3.9375 -3.082031 L 4.882812 -3.511719 C 4.816406 -3.871094 4.636719 -4.355469 4.421875 -4.835938 C 4.679688 -4.554688 4.984375 -4.0625 5.128906 -3.757812 C 6.0625 -4.050781 6.929688 -4.433594 7.695312 -4.9375 C 8.414062 -4.445312 9.257812 -4.074219 10.203125 -3.8125 C 10.382812 -4.128906 10.742188 -4.636719 11.023438 -4.894531 C 10.171875 -5.074219 9.394531 -5.367188 8.71875 -5.75 C 9.515625 -6.515625 10.148438 -7.46875 10.550781 -8.664062 Z M 9.652344 -9.066406 "/></g></g><g style="fill:#332c54;fill-opacity:1;"><g transform="translate(129.564839, 66.725384)"><path style="stroke:none" d="M 2.675781 -3.601562 C 2.035156 -2.285156 1.226562 -0.867188 0.664062 -0.0117188 L 1.832031 0.820312 C 2.464844 -0.28125 3.128906 -1.574219 3.691406 -2.765625 Z M 3.140625 -5.378906 C 2.6875 -5.761719 1.753906 -6.199219 1.058594 -6.445312 L 0.347656 -5.445312 C 1.058594 -5.140625 1.945312 -4.644531 2.375 -4.265625 Z M 8.574219 -4.398438 L 8.574219 -3.9375 L 5.816406 -3.9375 L 5.816406 -4.433594 L 4.871094 -4.433594 C 5.679688 -4.644531 6.445312 -4.90625 7.144531 -5.230469 C 7.941406 -4.847656 8.820312 -4.601562 9.742188 -4.398438 Z M 5.75 -2.046875 C 5.792969 -2.316406 5.804688 -2.585938 5.816406 -2.824219 L 8.574219 -2.824219 L 8.574219 -2.046875 Z M 8.191406 -7.359375 C 7.921875 -7.054688 7.59375 -6.785156 7.210938 -6.546875 C 6.816406 -6.761719 6.445312 -7.03125 6.085938 -7.359375 Z M 10.742188 -7.359375 L 10.742188 -8.515625 L 7.875 -8.515625 L 7.875 -9.515625 L 6.492188 -9.515625 L 6.492188 -8.515625 L 3.667969 -8.515625 L 3.667969 -8.4375 C 3.195312 -8.796875 2.363281 -9.226562 1.722656 -9.472656 L 0.988281 -8.484375 C 1.699219 -8.179688 2.578125 -7.660156 2.980469 -7.265625 L 3.667969 -8.246094 L 3.667969 -7.359375 L 4.546875 -7.359375 C 4.972656 -6.785156 5.445312 -6.332031 5.953125 -5.953125 C 5.128906 -5.660156 4.183594 -5.457031 3.207031 -5.320312 C 3.410156 -5.0625 3.722656 -4.5 3.835938 -4.195312 C 4.074219 -4.242188 4.308594 -4.296875 4.535156 -4.355469 L 4.535156 -3.128906 C 4.535156 -2.171875 4.386719 -0.609375 3.128906 0.382812 C 3.453125 0.527344 3.960938 0.890625 4.195312 1.089844 C 4.894531 0.527344 5.289062 -0.203125 5.523438 -0.945312 L 8.574219 -0.945312 L 8.574219 0.957031 L 9.890625 0.957031 L 9.890625 -4.363281 L 10.292969 -4.285156 C 10.417969 -4.703125 10.722656 -5.1875 11.015625 -5.488281 C 10.089844 -5.613281 9.234375 -5.769531 8.4375 -6.019531 C 8.933594 -6.402344 9.359375 -6.839844 9.699219 -7.359375 Z M 10.742188 -7.359375 "/></g></g><g style="fill:#332c54;fill-opacity:1;"><g transform="translate(144.022251, 66.725384)"><path style="stroke:none" d="M 7.007812 -1.621094 C 6.996094 -2.125 6.976562 -2.949219 6.964844 -3.566406 C 7.648438 -3.882812 8.28125 -4.128906 8.773438 -4.320312 C 9.15625 -4.476562 9.742188 -4.703125 10.101562 -4.792969 L 9.539062 -6.085938 C 9.136719 -5.894531 8.742188 -5.703125 8.3125 -5.511719 C 7.851562 -5.308594 7.378906 -5.117188 6.804688 -4.847656 C 6.558594 -5.421875 5.996094 -5.714844 5.320312 -5.714844 C 4.949219 -5.714844 4.355469 -5.636719 4.0625 -5.488281 C 4.296875 -5.816406 4.523438 -6.222656 4.703125 -6.613281 C 5.894531 -6.660156 7.265625 -6.75 8.335938 -6.90625 L 8.347656 -8.210938 C 7.367188 -8.03125 6.242188 -7.941406 5.199219 -7.886719 C 5.332031 -8.335938 5.410156 -8.71875 5.46875 -8.988281 L 4.003906 -9.113281 C 3.992188 -8.796875 3.914062 -8.347656 3.78125 -7.839844 L 3.238281 -7.839844 C 2.675781 -7.839844 1.84375 -7.875 1.28125 -7.964844 L 1.28125 -6.660156 C 1.890625 -6.605469 2.710938 -6.582031 3.160156 -6.582031 L 3.296875 -6.582031 C 2.800781 -5.589844 2.015625 -4.601562 0.84375 -3.519531 L 2.035156 -2.632812 C 2.417969 -3.117188 2.734375 -3.519531 3.070312 -3.859375 C 3.5 -4.265625 4.183594 -4.625 4.816406 -4.625 C 5.117188 -4.625 5.410156 -4.523438 5.589844 -4.242188 C 4.320312 -3.589844 2.96875 -2.6875 2.96875 -1.269531 C 2.96875 0.167969 4.285156 0.585938 6.03125 0.585938 C 7.078125 0.585938 8.4375 0.496094 9.179688 0.40625 L 9.226562 -1.046875 C 8.246094 -0.84375 7.007812 -0.71875 6.0625 -0.71875 C 4.972656 -0.71875 4.445312 -0.890625 4.445312 -1.507812 C 4.445312 -2.058594 4.894531 -2.496094 5.714844 -2.949219 C 5.703125 -2.464844 5.691406 -1.945312 5.671875 -1.621094 Z M 7.007812 -1.621094 "/></g></g><g style="fill:#332c54;fill-opacity:1;"><g transform="translate(158.479662, 66.725384)"><path style="stroke:none" d="M 0.664062 -6.164062 L 1.292969 -4.589844 C 2.453125 -5.109375 5.085938 -6.210938 6.726562 -6.210938 C 8.066406 -6.210938 8.785156 -5.410156 8.785156 -4.363281 C 8.785156 -2.429688 6.421875 -1.550781 3.410156 -1.484375 L 4.050781 0 C 7.976562 -0.203125 10.382812 -1.824219 10.382812 -4.34375 C 10.382812 -6.402344 8.796875 -7.558594 6.785156 -7.558594 C 5.152344 -7.558594 2.890625 -6.761719 2.023438 -6.503906 C 1.621094 -6.378906 1.070312 -6.234375 0.664062 -6.164062 Z M 0.664062 -6.164062 "/></g></g><g style="fill:#332c54;fill-opacity:1;"><g transform="translate(172.937073, 66.725384)"><path style="stroke:none" d="M 6.929688 -9.234375 C 6.75 -8.976562 6.390625 -8.605469 6.074219 -8.300781 C 5.320312 -7.558594 3.792969 -6.324219 2.925781 -5.613281 C 1.8125 -4.691406 1.722656 -4.074219 2.824219 -3.140625 C 3.847656 -2.273438 5.546875 -0.820312 6.152344 -0.179688 C 6.46875 0.15625 6.816406 0.507812 7.132812 0.855469 L 8.425781 -0.335938 C 7.324219 -1.40625 5.175781 -3.105469 4.34375 -3.8125 C 3.734375 -4.332031 3.722656 -4.453125 4.320312 -4.960938 C 5.0625 -5.601562 6.535156 -6.738281 7.257812 -7.324219 C 7.515625 -7.527344 7.886719 -7.820312 8.234375 -8.078125 Z M 6.929688 -9.234375 "/></g></g><g style="fill:#332c54;fill-opacity:1;"><g transform="translate(187.394485, 66.725384)"><path style="stroke:none" d="M 5.523438 -0.675781 C 4.871094 -0.675781 4.398438 -0.957031 4.398438 -1.371094 C 4.398438 -1.652344 4.667969 -1.902344 5.085938 -1.902344 C 5.691406 -1.902344 6.109375 -1.429688 6.175781 -0.707031 C 5.972656 -0.6875 5.761719 -0.675781 5.523438 -0.675781 Z M 7.976562 -8.707031 C 7.839844 -8.671875 7.582031 -8.628906 7.121094 -8.59375 C 6.492188 -8.539062 4.105469 -8.484375 3.519531 -8.484375 C 3.207031 -8.484375 2.824219 -8.503906 2.507812 -8.539062 L 2.554688 -7.085938 C 2.8125 -7.132812 3.160156 -7.167969 3.464844 -7.175781 C 4.050781 -7.222656 5.578125 -7.289062 6.152344 -7.300781 C 5.601562 -6.816406 4.445312 -5.882812 3.824219 -5.367188 C 3.160156 -4.828125 1.824219 -3.691406 1.035156 -3.046875 L 2.046875 -2.003906 C 3.238281 -3.351562 4.355469 -4.265625 6.0625 -4.265625 C 7.359375 -4.265625 8.371094 -3.589844 8.371094 -2.585938 C 8.371094 -1.914062 8.066406 -1.394531 7.457031 -1.070312 C 7.289062 -2.125 6.457031 -2.96875 5.085938 -2.96875 C 3.902344 -2.96875 3.082031 -2.136719 3.082031 -1.238281 C 3.082031 -0.125 4.253906 0.585938 5.804688 0.585938 C 8.492188 0.585938 9.832031 -0.808594 9.832031 -2.566406 C 9.832031 -4.183594 8.390625 -5.367188 6.503906 -5.367188 C 6.140625 -5.367188 5.828125 -5.34375 5.457031 -5.242188 C 6.152344 -5.804688 7.324219 -6.796875 7.921875 -7.210938 C 8.167969 -7.378906 8.425781 -7.546875 8.695312 -7.71875 Z M 7.976562 -8.707031 "/></g></g><g style="fill:#332c54;fill-opacity:1;"><g transform="translate(201.851896, 66.725384)"><path style="stroke:none" d="M 2.171875 -2.789062 C 1.179688 -2.789062 0.359375 -1.96875 0.359375 -0.96875 C 0.359375 0.0351562 1.179688 0.855469 2.171875 0.855469 C 3.183594 0.855469 3.992188 0.0351562 3.992188 -0.96875 C 3.992188 -1.96875 3.183594 -2.789062 2.171875 -2.789062 Z M 2.171875 0.0351562 C 1.632812 0.0351562 1.171875 -0.40625 1.171875 -0.96875 C 1.171875 -1.53125 1.632812 -1.980469 2.171875 -1.980469 C 2.734375 -1.980469 3.183594 -1.53125 3.183594 -0.96875 C 3.183594 -0.40625 2.734375 0.0351562 2.171875 0.0351562 Z M 2.171875 0.0351562 "/></g></g><g style="fill:#332c54;fill-opacity:1;"><g transform="translate(83.625914, 50.28754)"><path style="stroke:none" d="M 17.671875 0.453125 C 14.253906 0.472656 11.304688 -0.132812 8.828125 -1.375 C 6.359375 -2.625 4.46875 -4.425781 3.15625 -6.78125 C 1.851562 -9.132812 1.203125 -11.960938 1.203125 -15.265625 C 1.203125 -18.648438 1.914062 -21.609375 3.34375 -24.140625 C 4.769531 -26.671875 6.765625 -28.632812 9.328125 -30.03125 C 11.890625 -31.425781 14.878906 -32.125 18.296875 -32.125 C 21.421875 -32.125 24.148438 -31.46875 26.484375 -30.15625 C 28.816406 -28.851562 30.628906 -27.035156 31.921875 -24.703125 C 33.222656 -22.367188 33.875 -19.625 33.875 -16.46875 C 33.875 -13.132812 33.195312 -10.203125 31.84375 -7.671875 C 30.488281 -5.140625 28.585938 -3.160156 26.140625 -1.734375 C 23.703125 -0.304688 20.878906 0.421875 17.671875 0.453125 Z M 17.453125 -7.359375 C 19.742188 -7.359375 21.554688 -8.171875 22.890625 -9.796875 C 24.234375 -11.421875 24.90625 -13.582031 24.90625 -16.28125 C 24.90625 -18.726562 24.269531 -20.679688 23 -22.140625 C 21.738281 -23.597656 20.050781 -24.328125 17.9375 -24.328125 C 16.394531 -24.328125 15.039062 -23.945312 13.875 -23.1875 C 12.71875 -22.425781 11.816406 -21.382812 11.171875 -20.0625 C 10.535156 -18.738281 10.21875 -17.210938 10.21875 -15.484375 C 10.21875 -12.921875 10.859375 -10.925781 12.140625 -9.5 C 13.421875 -8.070312 15.191406 -7.359375 17.453125 -7.359375 Z M 17.453125 -7.359375 "/></g></g><g style="fill:#332c54;fill-opacity:1;"><g transform="translate(126.010431, 50.28754)"><path style="stroke:none" d="M 11.421875 0 L 2.671875 0 L 2.671875 -31.6875 L 14.6875 -31.6875 C 19.59375 -31.6875 23.210938 -30.800781 25.546875 -29.03125 C 27.878906 -27.257812 29.046875 -24.675781 29.046875 -21.28125 C 29.046875 -19.019531 28.4375 -17.070312 27.21875 -15.4375 C 26 -13.800781 24.273438 -12.546875 22.046875 -11.671875 C 19.816406 -10.796875 17.15625 -10.359375 14.0625 -10.359375 L 11.421875 -10.359375 Z M 14.953125 -24.5 L 11.421875 -24.5 L 11.421875 -17.578125 L 14.5 -17.578125 C 16.34375 -17.578125 17.75 -17.859375 18.71875 -18.421875 C 19.6875 -18.992188 20.171875 -19.921875 20.171875 -21.203125 C 20.171875 -22.328125 19.753906 -23.15625 18.921875 -23.6875 C 18.085938 -24.226562 16.765625 -24.5 14.953125 -24.5 Z M 14.953125 -24.5 "/></g></g><g style="fill:#332c54;fill-opacity:1;"><g transform="translate(162.639819, 50.28754)"><path style="stroke:none" d="M 2.671875 0 L 2.671875 -31.6875 L 11.609375 -31.6875 L 11.609375 0 Z M 2.671875 0 "/></g></g><g style="fill:#332c54;fill-opacity:1;"><g transform="translate(184.23451, 50.28754)"><path style="stroke:none" d="M 22.890625 -31.6875 L 31.453125 -31.6875 L 31.453125 0 L 23.515625 0 L 11.25 -17.046875 L 11.25 0 L 2.671875 0 L 2.671875 -31.6875 L 10.625 -31.6875 L 22.890625 -14.6875 Z M 22.890625 -31.6875 "/></g></g><g style="fill:#332c54;fill-opacity:1;"><g transform="translate(225.682146, 50.28754)"><path style="stroke:none" d="M 2.671875 0 L 2.671875 -31.6875 L 11.609375 -31.6875 L 11.609375 0 Z M 2.671875 0 "/></g></g><g style="fill:#332c54;fill-opacity:1;"><g transform="translate(247.276836, 50.28754)"><path style="stroke:none" d="M 17.671875 0.453125 C 14.253906 0.472656 11.304688 -0.132812 8.828125 -1.375 C 6.359375 -2.625 4.46875 -4.425781 3.15625 -6.78125 C 1.851562 -9.132812 1.203125 -11.960938 1.203125 -15.265625 C 1.203125 -18.648438 1.914062 -21.609375 3.34375 -24.140625 C 4.769531 -26.671875 6.765625 -28.632812 9.328125 -30.03125 C 11.890625 -31.425781 14.878906 -32.125 18.296875 -32.125 C 21.421875 -32.125 24.148438 -31.46875 26.484375 -30.15625 C 28.816406 -28.851562 30.628906 -27.035156 31.921875 -24.703125 C 33.222656 -22.367188 33.875 -19.625 33.875 -16.46875 C 33.875 -13.132812 33.195312 -10.203125 31.84375 -7.671875 C 30.488281 -5.140625 28.585938 -3.160156 26.140625 -1.734375 C 23.703125 -0.304688 20.878906 0.421875 17.671875 0.453125 Z M 17.453125 -7.359375 C 19.742188 -7.359375 21.554688 -8.171875 22.890625 -9.796875 C 24.234375 -11.421875 24.90625 -13.582031 24.90625 -16.28125 C 24.90625 -18.726562 24.269531 -20.679688 23 -22.140625 C 21.738281 -23.597656 20.050781 -24.328125 17.9375 -24.328125 C 16.394531 -24.328125 15.039062 -23.945312 13.875 -23.1875 C 12.71875 -22.425781 11.816406 -21.382812 11.171875 -20.0625 C 10.535156 -18.738281 10.21875 -17.210938 10.21875 -15.484375 C 10.21875 -12.921875 10.859375 -10.925781 12.140625 -9.5 C 13.421875 -8.070312 15.191406 -7.359375 17.453125 -7.359375 Z M 17.453125 -7.359375 "/></g></g></g></svg>